<mxfile host="Electron" modified="2024-06-02T13:11:01.632Z" agent="Mozilla/5.0 (Windows NT 10.0; Win64; x64) AppleWebKit/537.36 (KHTML, like Gecko) draw.io/24.4.0 Chrome/120.0.6099.109 Electron/28.1.0 Safari/537.36" etag="N1yH0hw5BPrsQDfwmNr8" version="24.4.0" type="device">
  <diagram name="第 1 页" id="vqRBmBBITWal0Hqs-MkK">
    <mxGraphModel dx="2074" dy="1204" grid="1" gridSize="10" guides="1" tooltips="1" connect="1" arrows="1" fold="1" page="1" pageScale="1" pageWidth="827" pageHeight="1169" math="0" shadow="0">
      <root>
        <mxCell id="0" />
        <mxCell id="1" parent="0" />
        <mxCell id="5z9il9UeBbhPQ34tfP2P-3" value="" style="shape=image;verticalLabelPosition=bottom;labelBackgroundColor=default;verticalAlign=top;aspect=fixed;imageAspect=0;image=data:image/png,iVBORw0KGgoAAAANSUhEUgAAAQEAAAFZCAYAAACYMZpnAAAAAXNSR0IArs4c6QAAAARnQU1BAACxjwv8YQUAAAAJcEhZcwAADsMAAA7DAcdvqGQAADmsSURBVHhe7Z0PTFxXfu+/+M8k2UG7meitSSqQatIK2u1sJOhKeCXYV8G2xRtB10s2rmXXKC6RjWuEFdcWxTJvIlvILJEt5xkss+zDS+RHEsoWl4XuBtQuPAXUZKxmZ1cBvbe4KuhtSaWMt2/In/G/d849587cmbkD98xwhxnu7xNNmLkcH84999zf+f3O3PP75j399NOPQBCEY8lOI+D5MrZ1/Clcv7cL29nHR+GPcf/9f0TY96/i9w5iW9df4vHnvoSH/z6Nzw6/J4/mMN+owWN/8xx2yI+CJaz+yVvyfe6yrecVPPEsexP6AKvfmRQHLbDZ13ib/Gk7ea/8CVw3juKJnq/II0ko/Qp2/vAv8IQ0AJw811PY+fXvsH9bIo/Yj+X22spXsIMNjjz2bvvT7Mb5hjiaLtlxboTAnmusQsaMwPav/wF2Pu1e9w9u5x6Ai83+H/8Cn7ZfZjPEa1jt/wXus99te/aPsONbopzdWG2vvfwS9z/4Dbir9uDfP8D9n4mj6bKp5/azSXzOryl7ffLeb+RBJ2PPNVZhc8d4PCf+HI89xX4yd+qTP/8JHr7/QBx/6yf4/N2P2Rs3s5SF4phDeHj6+/iE3TBbIhRwCqHP5RtrbPY11tYEdvz9K3iMzb73fvQawtfkb4wc/S7c3y6KiXXyjtZg5zdKsP2px6UluY8HH/8a994cw4O/+0Q7knf+L/GFr31Je5+M++/9EJ+f/Q/t/Y6/Ze3I/wzh/qu4Fx8iyljy8z95Ezv+/sWsaK9V8rqO4gvPudm7j/HZX/8PPPi5OC4oZOfNziefDYYPx/Bp60K0/TEkiZv1suFf4JP9/4y8730Hjz37Je0cHyx9gM+7J/FoXv3cksW3keO/+gesNv9SHGRY6d94om1Kc01A9sG9sTfxgIWNjz21g3mSfnzW+R/YwT1L1rcPWHs/S6e93/gqdrz0dYMHtYr7H76Lz1ujFzPaN+9g9f1n8Ni3/gA72N9+xMv+0yjCnb8WBTkK11iv9/57NxFe2QPXH+/GDu4tm9XLcX8R2079KXb+YZFWTju3pV8ifGUSD2PGnkA7n0d8kmXkFXjEm3jcMjoPfiR+shvS9e3nsDPSgZwdrEOL8PixA9ieSlzD6tzOOgyhBdz/8TPY/n124/zkFfY6jseZkXJ99SPNZXL/bWl2tFeBR28xl0979xQLZ76ovYvwLRYT8vNmJe6/ywxAqrh2Yef3DrDBIgwAZ3vRc3i8JQNx/yb3r86O51/E48wA8Ph621Ps3C8IA8DZ/iy76b8r3iu3l92wT/zNN/FYTAjFvNLf+yZcR+VHI0WVeOJFYQA4eazszv+6L/r3U2Tbc/vwxPPCAHBM63Xze6cJT3xdNwAcdm5sLDxx4bvYVioPGdDO6dGq9h7YGbtmq5Pn4bMYj1n0GfBzPGKzzKfdvSJm568rLJ7Rfvcl7PyWcNkfnf1+5Pefh7RDYgbR/w0/rs+qvNHsx/0Pf4m8C/vweJFbu5h5eBzbXffxaEWGBvlPZUd7VXh/Bvf/XbzdUfqceCPJ+8ZusQAamo96P9feivw963EzMwJstrj30x+Kf/eB6KRtzwojYNu5aVjrX7vJw2fMO+xj5/4Z+7QD21y/YZ7QZXy6xH/LPj+rG2CF9paWMYNRpN0oj0J32L/576L8kR/gk5/ewUNRKhbX48jja1p/zcrtH0M4zA8+jh1f526CJIVrvI3Vi/XqbflTEVKDnXt/n/gb7e/gHi/rKsJjRxMX14UR+Fg0YsdTu7SfeV3H4Waz8ONdojPy8sVN9TAop+CfzSD8l8y1eMfgNv14Eg/k4Nqev7bbaca2It7y+8xd+QKz2uxk+Ul035QDdpUZAf6TEWYXMAvaq8qD9/+v5sng6d/B9q9qhxiF7FxFW+///J+1n+lw/70RhF8TN/Kj938tB+gX7V9xzoL+1fj45yw8/E9tjHAefsiM7zts8tBuFob7MfFTob15L5Zhp/ZuFeEfjLB/I+P95SAevTaC+2bhaHgJn/l+Ilzv4AJzxcVh7SZOBwv1bi99Sps8H3zwD7j/FusLzvs/x70PxD2z7dnf1n4aEUZgWRZ2CTda3ITs5++JWQQubY5m1tOw4PGtr2HHjaN4nN18/AbkLx7Xpkqe5tmv4uFTu9lJsbcf/x88eIe1R3Np/hMP9VXTMDMIWdBeHR7X6vUZX4+d/7IsIfnBbWGNWUiw/ZtyMEZCgY9x/0dB7VDq/Ib1lyE2fGsUn2ozzfczs+K82f3L0Y2+5GEo9nMMFtubVyANQvgOC1PF23UJf4yH8/L9RrJuvV/B9qfFu+3PvRjTX5H1IFeiQRYhzq8+huZse3Yx91TE5vdDzHK4fgc7/uzL2FbAf8luUGl5tBippUqLkWT0nTZ58mZ/9KH2kV3Q/2AzJ4tv+XFu2b8qLJy28poF7VVmdYGFOsJF3/lVYaz0UIC7prGLhTlGNvSvCrnWXpsRRuDdj4Tr6HJjmxabs5npzX9lcymPN/QVzP/Eg1n+8xns+KaIkXgcG/kun70isaYJj9b4nSncdfvub4u/w2Z/fJO5zuztg5U7WdVeY6xtfJnF149+dkcYr6dLsL3wyzIUuI97797mRzOG8rXQ8bB2xy9op9i/VlHpX2uotfdRiK8vMFy7M/aMSuowT0Gew4P3bsb0V/Rl8u2D9v9V9o+1hYOnsIPNuAgt4eFb83jAjm1/tkybaRFxrditKFcdH4XYzci/y/d8EdvOH8LONdy/yGJeEXNZ/nAN+xuULvzTfwT3kVJhqfOfwxN//FvME1hlru1ydrVXhR//BPe0Zv0WtrfIdobnce8H/FjmsHJujz6WhVgfb+NrGF99Fjt6ntce5Ioltf7dPNTa++hnLCzV3rnhYh5EJJQr9CDvlX1wdZiEJZvGr/HgV+K6bf/at7Dz6DPa+/UQRgDL8ms3dlOxe+rBr+aZK76MBx8yK5j/JW3VPvJ1Gzv+8FfCOuY9XSVijqEmPPG1XXplpjz8UC6MuYrw+IXWSKyix3ZidmIXwzOD8HviCapH3FL/VM6ezADc+6dRGZdtfntT5cG7ot4dz/2B1s4HH0a/u9YxxsHR7/aLIsfcf1sjj6WGlXN7NCv7nZV54nvs99/7M23V+UFItyA6av1r97mtj+J4YIb7czke83h/nfor8W/6X8IX/ng38sSqoTJ29cOjK/8ovzX4ElzfPhCtT77Mxm/kvCOzAz7D/XfZbMt49D7rMO0du/gf6zMrG0TtI/hs6TeR3/ENPvfe/bu1v+p4/X+yG3oJ98P3xQCM41GQf0HzJWz7w8c0F5A/QfXJd36Mh6+xv6W5MddiHorY7PamzI8WWADABoH2gbXjLdH2jGLl3PjgH7ujtZWj9dlP38Rn70T7VSel/t1EVNvLx+Onb37AvLjPov+Ge6UfvpNGWGITywu49xc/xKcffqR5xlbInl2EJ/4cX3ieufyKO7AIgkiPtTzizPKjn7OZif1k8f/j3/8a8vTnNYqfwba2bIu9CGLrkF35BPhXN/LprHhSeWafIIj12Z6fn//f5PvN5/1fMm9gB/J+uwDbntimxc08Xrv/i/+FcNsdUYYgiA2F0osRhMPJnjUBgiA2BTICBOFwyAgQhMMhI0AQDoeMAEE4HDIC6+GuRvvgGMbGBtFeLRKAEFuHyvZBdm3HMHKlSR5xHo4wApW+Ie1Cp3Sdy6rg1RKeeOCtKtMOrUdhcy/7e0PorJUHiCylEjXi4sJV7IVTzQB5AutxexoBLelPEIFpK/v+y3B4TxErHsDbE/JQDGXSs2CvkU7UyaO5TtMVfk5XcuxGmsGkuLgIzU+jT3vnPMgIrMfqFC4ceh7PP38IF6bit9GaUPuC5jkszd6Aqckoq0Up+/3KygqbfkqwZ6tYgRxl5sIhdm2fx/5Tw/KI80jfCDRdse5qq5TNUQ5XlyA/PI+5G+ZbhMtqS1lgsYi5rgBW4MLuPRQzEJuLln8jwpOVaH71ZdQUe/TkKwZC8F/cj44Z+TEb4O0924iq0gKIpDBhhFYWMd3XgZ65+Fk7hOBiCeraW/FCeRE8/ARDS/DfvIyOW4Z8/9xQ1RfLD7Esjj6PlrV8xsJmVJS6EApM4Yap01CGWs0N8GNiYQqelRpU7a5CLSbYf3G4vWhobUa93lZGaMmP4Z4uDAdk5WXtGHx1D6tnGm1HuhAQRyM0945hb1EQs+eYF8PcEr42cqb8HmYvdmGhphkNrG6t38z6QeL2NqC1uR7lRfqYCGHJfxPHOm5pn1JC5bqpjEnLZZtwZaweMVd5cRTPm1xc5T6z6x5SGusKsHoNnkAl2l8/g72mjc9C3NXw8fZGOoXjQn5BKfaevQZfwkq+C4UHfHiZxev6TYX8IpS/fBbtlfJzmpQd3oMivnZgvhgAeGvAuhcrzAAss1t2djnE2rAbFSZ/v6nTh0ZjWxn5ReVobDogPzFu30KAp2Iv8KIufs2SGSQvzwe4NKsZgChueI+zuvXBzNH6oRXNcfIA7up2XOtsxJ6IAeDko6j8AHyp9pnSdVMZk3aOX6t9ZlMblMe6RWS9USPQwKw9G6DhlVlcPfqiFicdvTSJJb7Hn7m3Ay9mlxdQe7ZJttePgXMHtfa+ePQSxhd5njIPyhsOi4IRXCgoyEdocRyX+Pm92IYBbVGIld1rCMz7WrS6jK+LfpMMlAnU4gWxGBB300Xx1paggAUBCxNizp6Zu8PmhnyU1MTfUU3wFrNhxGb48/JaPH/wBC6NshAixugHcNPPUyp7UFobawUKG8qZQQpjfu6GPKLDBk8+81ZYP1w8yOs9h0ntIhfBWxd7A55uYl4Ge6f12QnRxwdPXMJoYBmpzj1K101lTCqN3z608D7VXqMsOFsPi31m0z2kPtatodcbMQIVJQWa9Vqeu4CJZXGJl6cu42aA/SFXIbz6GKv0YYivbOsv6ToX1xuOsZcW96uUVaIOVSXMJrKOHW3pwPDtu9rR1eUp9LTcAG8yikoTVqpD/kvY39KDKX5+qwEMn5/WBoCr0IsKUSRl3IerUZJvdtPpeFHL+hihZczqfvvELO6wAZJfUsNuOSNBkSfOU4LaCum03r2Dqb42HGmLdVmXb8xhnpX1eOtj6mjw8r+1gCmTuCTMXF/eDzO82+7exuXbYv3CU2AwJHV74eVdvDQu+uyO6OO7d6bQ13YKXSlNCGrXzfKYZKiUTQUrfWZPG1Ib6+sTrTdiBOY+El+VFFacRnWhsG6F1a04wEcCs/vBrNrOXwC31tsLJrH3BPzL/A7ahcK4CfYj1nExrM4jyDtxp0uqzKTO4YpSuJLcdBreWmg24M4covfPLfgXuRUoRuwjCMPoG51HyFWA8sZOZigH0dt5Gg2VT8rfG1i9gakFdhL5JYg4FN7T4DYgGHg7ca2BsRxY/8uwwuJdYkDf7hEHNgS166YyJu0ev1b6zJ42pDbW1ydabzQc6BsF93pdBVU4ee1NbYa+drIGRaxgeH4Cl/XF7pkO7I+4Uuw1KpwpvmgWOcZe2hqLStkN5x7C9+RbuylrZ3Fz8puOI0IBdq96j8d4QY2l/EokuvMLN05hP3M7r08GsBR0o8hbhcYzb5g+2TYxLcOKveKbhrI6L/tbS5i9YeW5BnOMaxGZxXDdrI5JjkpZu9i0NqQ31iNGwN1Qq7l/oSBzReUxhIMsxL2OfVn3Hap0lwtLcNgQkmm461BeyHudxd5z8lgyyqpQrBnpoGF2Vqf2BS+7jde66WQosAae4hpWKg7mdt663IZjh/axGPAqZlfCcBXXojP+2YKJt7UHmvK1bxrENxDh+Tn0pDHoAkEx7ewq3sgHGdSum8qYzIbxa08bNmisJxCtN2IEDlQxd5YN5LmrXeh45aiYpfcdwrELaXwVZBvDCHA32lWK+u5WVO8WbrK7sBqt3Y0ill2cY6Vi2emOKrIWVjSg86RY+FrypzFI3IdRzWKrNW86GQpoX0MZPCD9Namt8LP4X7cCle3o7fWhqTra3tXQPAIf8avmgjvBntzGjdklLSSobq+H1xPCwlSytQmLTMyz0cA9l0b0+xpQId1b3sdNnd04rex+ctSum8qYzIbxm1obKnG6f0TzGoZMF8dSG+vrE6038pzA8irzY1CEmrOdiJc9CAcXMXm1Lb3vIzeYG30TKO+sR3FRDU6+zl7yuEZ4ERN9id1SVPMaxuJOji/4HEtjyiw8XIFSVwiBNW66QnYzazYgcFMciGNqYQU1BQUo4VYgwFcNXfAUlaP+JH+JMhHC85g2qWaZeSGLe+tRuqecTUV+jCeLS6yy3IPLo6XorC9GQXkjzrJXlBD84/JtDMWoZ4O5Xn6KYPgOXuW6qYxJpfFr9ixIcT27EUXLQ/6L2J/CMn5K91BlDcoK2GzOyJf7F+Kj41TGuhX0eiOewMTVKc3yc8KanxDF5SnG3tOdaIr7HllDfqVmKa5XKbseC31o6xjA7JLB9WKDc2V+HBdfakGf4RmOO9NzCPByxtPS3TTLjQnzfxLHevsEBNpKPVawOGFuRAOzy6zl3BmoFgdmOnB1fB4rIUODw/q5ncKwWTWrffDzrwkYwcBoWuGNzgK7Xh0Ds1gKGtvB++1m6l8XK1w3lTGZ8vjdQFJqw8wkbrMwjxNaDJjvX1DoMyVkvTLRaBlzSV5FlWcJ4x2n0KM/kcZ5kv3uNfY7No7XfWJui1LtGwKblBOf9qrtxNBxL4LjR9PyJjaK1v4x5lGwa3j0WFrrAdmBypjMhvGbDW1IDekJlKOQT1bMDc3fFWuqSsqrsJsHzmwmW1ZefMg1KtHeewWtddGnBvhXPA1a4LWMxbh1v/X2CWQKLT7sHWEGgLuyw1vAAHBUxmQ2jN/cvYekJ8AG/+AZ7NEaak4ocB3727JxkXAjqYRv6AzK2T0fz8r0ORzpSv0rN1uIj22Dflw62gErmx2zH5UxmQ3jN3fvISk+8m+Y+cclPPn7v4tnvpgPl0GtOhxcwr/89Br+qusdeWQr82/4l5Un8fu/+wz+S75YrAmHVvC/Jy/jry6/p33OKsprcYBvSGKRYnDxJ7hy+nv4p/8nfpX7qIzJbBi/uXsPkfgIQTic6BODBEE4EjICBOFwyAgQhMMhI0AQDoeMAEE4nK1jBEgkZEtDIiH2saFGIF3RDZ7UkV/olK4ziYRsYUgkxE420AhY20xjGyQSYgkSCbGf2vZ+DI1sbh+rtGHjjMB6oht2QyIhW5pcEgkpLCiAfOB001Bpw4YZgWzZTGOV9dpLIiGEU9iYx4YLm9F7bS88gavY32biW1sUTuBrAmf4lt1LHfBX2CsSsmZ7tVDgVewJT+LokSkc6O9ElTuAq/vbEnMI5phICA8H6osXMfp8y/putYrghYrohuWyOSQSssZ41ElIVsLHzmlDW7UcAdMYOC+zGhuxMs5SaQNjQzyBNUU3SCSEREJiUCmryiaLhCiijR1jW9m7gtK9OPO6D/G3haVxliIbYATWFt0gkRAOiYREJp+tKhJiGI8iqTb3tvS2i5dxBi5ks3YtGzvhpcnINYv0r6ccDYeNVsviOFNsg07aRmBt0Q0SCdEhkRDB1hUJUaPWWwwX799TlyPXTOvftmktRVlRqXENyvo4S4W0jcDaohskEhKBREI0tq5IiAqVKNzFfrhK8cKb8mto/fXmXua3MNweQwp6hXGWAukZAQuiG+tDIiEkEuIUkZDUURlnqqRlBNYX3ZBuDImECEgkZAuLhMTjZqGffJvADLTLFg7gelzMHnmZfItkeZxFWKsNUUyMwHpiCBIrohspCieQSIgCJBKijN1tWFnl178AZQcaUJbEY59eZLOBy4sDV1pRVxH3dU88yuPMWht0IuIjESyIIXCsiG5wSCQkFhIJsV7W9HvvzRIJUWDKv4hGb6lmmF99I3o9jO29fXkA/tKTKGee5ctn2Us7GiX2WRf1cWalDTqJnoAVMQSVfQIkEhILiYRYLmsXdrdhdfgUurRxIQ+YsTqFjhMXMT6/AuPwMSWFcWapDZLUnhjMMtENHRIJ2QxURDeyQaAjG9qQXaS0MLj5+wQqSSQkayCRkFwnR1OOk0hI9qAiuqFS1i6stqEgcd9CUizuxchS0ntOYNOYwaWr45g3BDxcJGR+/Hz2GYAYuEgIi+NObBUDwJnBhSSxLRfd8I9eNNzUKmXtIhvakF2Q+AhBOJwc9QQIgtgoyAgQhMMhI0AQDoeMAEE4HDICBOFw0jYCJApBELlNmkYgDVEI/gANMx5kOwhic0n7OQHuCZzZ40FofkAtJ7x8ii4rn9EuqUN76wvRzL3hEJYCw+jpGobxUXMNy2VNMufqhPy4uL8jdjNRQiZa/qDRJK6fM2aiTf7kZASzugnCQNrhQC6JQliihN2snS/HZu518cy9jfB1xrktKmUVScxE64Kn2DwTLUGkAy0MxnG4qRY8sWswMIBzPGMtM3AHzw1oGYFcxdUxuoUqZXX4fm4tiYXxFTdT65loEVrE+CWR9OLgxXGIRL/lOHBcT3E2g479cXXJ14sD89oW4NDCJHkBxJpEjAAXb+DinL7KEtT5ejHE4nUes48N9cJXF81oIuCubTT/nvZaMwsRc23bezE4Yii/jkjC5tAgUjsHZ3GpbRgyyS7u3h5G23W/lh9wd4XMJaBUVo2GimI274fgv9qCnimx1fDuTA9arvJ6eT4DkxRnMZTheK3InjPdRyaAWJs4T8CF4pc78XKCeEM6wh9laO5OFE7ITphbz9sYXk3UJ5xZxkfsR75HN14qZVVoQjHf6rpyG8OG+/fJsgb4Gr3iuhQUrpl63d1wABV8u3Lg1hbZrkzYSYIR8LA7dV3hDwVRiMLmJuzlaVyDAQycl/nc2OuVST23S2oIdd01XkM+qNstmdq8oAq9rdFZfHdFA9p7q8WinmeXvAFVykbJLz8TaePIyCB6fU2IyRzt9UAL+VeDItEkl8u6MoQ3Xm1EuUz7xq/HrqRWwOAFXE03dxnhBBLWBDZW+MOLA8yrABuQ421tGJ6LTksLq5nKM67CDG5OLbJY2oWimpORm/X1s1ziS/pG4XtS1UelrDkulwdF5fWxi31PujUjwLNeNfj6MfIGl8vi9XFtwQGMBnikvxOuJAIMUS9ggrwAwhIJRmBjhT92M8+C/Qh9hMAGD8i+lugimOkrxa/FeL6++NxsYp/5rMhLp8/QDJWysd4Tex08gfPXp4X0lbbYJ6P8u6ua4XCV1qOxXCjlCFmt/TjWMczucn4kmVaD7gWsYG7AWXviidRJMAIbi1SyyTHmek7hiGHVfd+hY+iYZ6ES+11wJTYbvErZGO7ewdytLpySYZHbLWMCFn7p3oOmA9j2YlRWi3lWHs1jCOIjk/RXuhegCWgkChcThCnrG4G0hD+kF+Fya6m8jTR500spa8+aQHKaXuCLciEsTq+ffE6lbIlHhA73IlP7HJa5vgG70f1XO6Ky05yyOk22DCvLrFQ8Bi/g5hZ5ZoPICAlGIEb4o7oZV06nI/wxw8IA5u9yEQuf+NJcW+XuH0E9/3oty3EXlqCirhXdg6K94cWppCm8Vcpy3IUVqGu9gtNasrsVBCb02zqAyQVuBTzYc7obTVI54smyJnRHrsVNQ5ghiHoB08jqDGtE1hF5bJg/J3AmyfOnXPgjJu+/mSiEgRiBg8p2DJ4RgzdKGCvzy3CXFuOjbHtsuNKHoTPl0a9IJeGVaVxt6YrNDahSNmmfhbE42sb6wOC/u6vhu3ZSk8+OJ+FaaMg02gVBzJ47lFRynSDMWDsc0AQsBtCRjvzxzAWcfzsQXTzTEoJ2oWU0QSEkCwmz5s5j8vo57DsSd1MnoFKWE0ZwaRYD516KNQAcXZhiMVb4g387YHYtol7AJBkAQpkET8BJogsEQdj+7QBBENkOGQGCcDhkBAjC4ZD4CEE4HPIECMLhkBEgCIdDRoAgHA4ZAYJwOGQECMLhkBEgCIdDRoDIDkiMZtOIfU7AkuCFOm5vA1qb6w0CHUEs+d/GsQvx2W/UBDq8De1ori9HkZ7BVKt3FD2XTURCVM4txX6o9g3ipNz6R3swFMlmMZotTownYIfghbvah2udPO+eUaDDg6I9L2Oku0EeSIUmNDXuiRoAjlZvI3y+xHpVzi2VfuDn2Wi295cgspyIEbAueKHG6vIygsEVBEYvRVJwnRvnCTrZrVVajWaTBENWBDo4qysBjF46ESlz4vosVrQcJlXMRERRObeU+sFdjdON5fCEF+EP6HumCSI3iIQDrf1jqCkIwX9xf2xGHD1xxso02o50JWS0SRXzvyfCgV3GpCSKNPeOYW/BPAb2nYKeC0nl3FLpBxEGuJkr24K3C7s3Zks2D0lam1HPPBLd2Qkt+THc0xWbcoyTEL6EsDI/jYHz5uFLQnim5Sq4iWMdceEZT3d+thFVpQWRsCi0sojpvg70zEXbILah38PsxS4s1BjaEVqC/+ZldNyKy5dgcm46Cf2m0g9ESkhPIH3Bi9RYxWoaaw0xPLkb1c1XUFXEJQ4mIgZA7dzU+4GHAU0sDAgFBtjg3biUylpIEifYkl9UjsamA/JTlMTwJR8Fpebhi7u6PTE8Y+WLyg/AZ0zKyLMbvX4GeyMGgONCfkEp9p69Bl9CXOSG93hcOzThmtY4b09NjEalH4jUEEYgbcELRUpaZcLMBUyauBbrCnRE4Kq8MrHoG6/j5N5CBKcv4VCHIW26yrmp9gMPA5qYdxDyo+/8Rqb4bhISZ8zrOM9FYHi4c/AELo0GsBI3+enhS3hpEpdOHNTKvnj0EsZ5/MLCl4bDxjuwkrVXpHrTBGZk+YMnLmE0sByjkVB7tklLb6ZlPD4XVy+robzhsCgYgRmIfCFcc5HrMh48h0ktn3oRvHVRg6EmRmO9H4jUEUYgTcELVZpbq1DAs+nevJoo4RWHqUBHUlwoqjqJwXaDBqDKuSn2Q/VpdqPks/Pos5JOTIWg1gZ4SlBbIb8ruXsHU31tOBKXXqzWWwxXeB6jpy5j6o5wq1aXp9DTNq1pHxSVGlRR6/bCy04nvDQuBGZk+bt3ptDXdgpdEe+nDlUlvCCrt6UDw1JoUau35Qa0ZY+iUnaLxsLzH0bSo9+9jcu3hWfkKdDXUVTFaKz3A5E6wgikJXihRtOVETYT8NjvPDoS7hyLAh0RYlV5zw/4tYVBz57j6G6QFkPl3BTKuus6WRiQjyDP+7exFoAxjL7ReYRcBShv7GSeDvOGOk+jIcEdqkThLvbDVYoX3pQekf56cy+bgxluT0S8tLB4l3ZOy7d7xIGkSL2I5QXcSDi1Cfh5BmnsQmFcTvflwHo3pqoYjdV+INJBGIE0BC8s465Aay9Px80MwHgHi58tqGMkE+hIwtwwq3cgAC4NVuiVs4/KuSmULSvfrcW+nvKoBBl/6Rmbi+vF56GYQNs6CzdOYT9zqa+zeGkp6EaRtwqNZ97ASBpP01iJwa2TyqSgLkZjRz8QsciFwVQFLyzyZC18186iRvMA2tDSY7IQsAaJAh3JWV0Na18/RlE5N5v7QRXmUt+63IZjh/axePwqZpmb4yquRWdEG3YGQd7EcADXjR6U8WX4JiOgFWZzeLFRXNYM6YYXluCwdKgiuOtQXsju5PAKFpQ7IkUxmnX7gUgHaQRSE7zQFpr6R8SMl8wyl9Sh8/XjKPeY5Ndfh+QCHeaUcLEUvlDHYvg7c3qAq3Ju1svOdOw3veku+sVzAvyrLv45pa86K9vR2+tDU3VUCGY1NI/AR/zOdMFtuIOmF4PsEIu1r7SirmIdVaeJeW2dIN/biH5fAyoKxR3uLqxGU2c3TkeclmEEFtnf4qIx3a2o3i36gZdr7W4U6wqLc4ZvYKyiKEaj0A9E6kQfG1YWvGDEiG8sYvT5FhbVx7KWqImG8XFg+ehoIiYGJGlZNo/NXsKhC4ZvCFTOLZV+MLAhqduTiJpohOcxcOgUhnUnZY32cuLbUcL6rZP1W+ItF/dsREkTrnTWw+zeZB2B0TZ2reXlSHrO8hqlLEaj0g9EykhPgKEoeKExM4nbfCWOEVoMJBiA9FlDoCMBXjaA8YsHYw0AR+XcUumHjWamA1c1teNoCxDmDwCN4+JLcQNfb+/8CozFk8GVlDsGZll8baybi8zcjH04aqEPbR0DmF2K7QfRhqgBUEZFjEalH4iUoUSjBOFwop4AQRCOhIwAQTgcMgIE4XDICBCEwyEjQBAOh4wAQTgcMgIE4XDICBCEwyEjQBAOh4wAQTgcMgJEdsA3G42R+Mhm4ADxEZ6H8AzW2shoVreOVUGRyuZOHNhTYtBBMN9VSSRB7jhMa/clkRIxnkAqohvrkS3iI6lgSVCE50sYHMOZvd7YthBEjhAxAltXfCQ2D6Hx9eLAvNaO0MJkohfAMwlbEBRpbm3kSYoR1tryiqF+8gKI3MAR4iPmlOF0/6uoKljC+NFj6IlLfGlJUKS2E0PHvXBZSDaiDImPCEh8xHakJ6AuurExZEJ8xBx3wwFUsHMOBW4lGACrgiKVFTzZ6Arm+jZ+zifxEQGJj9iPMAJbWXzElDIcry1lQ3oJ01cn5DEJDwMsCoqU8gSoYTYbVXajf0jkWtReQ73wNcSnR1eBxEcEJD6SCYQR2MriIyZEvYCJxDDAsqCInvO/GFV7S1HAboAIfAZs9EW1D5SR2X49JD5C4iP2I4zAVhYfSUD3ApgbPxA706cqKBLiX6PqsxqbAQf8Kyx6dqG0NtUvvUl8REDiI5lAGIGtLD4Sh+4FhOcncDmuCWqCInexyjstHMDNlsu4pc9qbAYc7rgpZkt2A8bdJ5Yh8REBiY/Yj1wY3MriI0YMXsBN9az5sQSwyDP2ugqRaG/cLIyRb9OBxEcEJD5iK9IIbGXxkShRL2AaXSaLEaqCIhMB/ryDB+XH21FnEOhovnIAXnafhO7MJT5/YAUSHxGQ+EhGcIb4iIb+XEAQs+cO4cJ6K5IGkguKVKJ98Aw0GxUPF+hoYf1hKfaNg8RHBCQ+khGkJ8DYyuIjjKgXMKlkANZmBhdM+iwi0JGKAeCQ+IiAxEcyAomPEITDiXoCBEE4EjICBOFwyAgQhMMhI0AQDoeMAEE4HDICBOFwyAgQhMMhI0AQDoeMAEE4HDICBOFwyAgQ2QHfbDRG4iObQU6Lj3D49tbDrY2oKWV1JxURUanXrjYQayJ3HCbu1CTsJsYTyCXxEbe3Fq1XBvHmtZPYy28+eTyTZEMbCCJdIkYg18RHag83oabYw7yKFfgHRFLN9bAqasKxqw0EkW1EjEBDBU80EYL/agt6psRG+LszPWi56mdHgYKSmkjCSiUW+tBy6Aja+qJ7/G/3tGBaS2fmQcFu7ZAyw3MLLFTh+8qPoGM4iA3IgaqMrW3goVl7LwZHorkOh3p9aPCauGS8rK8XQ7Lc2NgQ+rubk6Rp58Ub0N47iBFD+V6fSa4unnq+u99Q7wiG+rvRXBHbBp5UhCcBba+MawdPvV4XzQoUweTckiWIUeoHIiWkEchB8ZHhNhyKJEPdJGxsA4mPCEh8xH6EEchZ8RE1VOq1qw3WIPERAYmPZAJhBLaM+Ih1VOq1qw3JsS66QeIjRLoII5Cz4iNWUanXrjaoQOIjAhIfyQTCCGwR8RHLqNRrVxvWgcRHBCQ+Yj9yYXDriI+ooFKvXW1YExIfEZD4iK1II7A1xEesolKvXW1YExIfEZD4SEbYkuIjGhteb5ptUIHERwQkPpIRpCfAyHnxERVURU3saMMakPiIgMRHMgKJjxCEw4l6AgRBOBIyAgThcMgIEITDISNAEA6HjABBOBwyAgThcMgIEITDISNAEA6HjABBOBwyAgThcMgIENkB32w0RuIjm0EOi4/YUbYSvqEzWGvTY0LdNvWZ45A7Dkl8JPPEeAK5JD6SLdjRZwSRSSKeAM9ae4XvM+fiI31dmvbAk5XNePX4XvCcoyvT53Cka720oCbwfelnK7A6fTOiPVDWfAVn9/I97UsYP3oMPZF8c2LG3mXcf54Uu8qa427oxmBjKcKGOmzrMydCnsCmEfEEck18JLOU4XhtqWa0pvuiRsS2PuOoiG7wsiQ+QqSINAI5KD6SQdwNB1DB+icUuBXjtdjZZyQ+IiDxEfsRRiCHxUfsFxQxeAFXJ+Qxhq19RuIjAhIfyQTCCGwR8RE7yka9gAmDF8Cwtc9IfERA4iOZQBiBnBQfyYSgiO4FrGBuIO7rTFv7jMRHBCQ+kgmEEdgK4iM2lNW9gPD8BC7HN9fmPiPxEQGJj9iPXBjcOuIjG1fW4AXcNMuwb3OfcUh8REDiI7YijUDui49sdNmoFzAN86/6U+0zC5D4iIDERzLCFhQfSbOsRhkzbq+iqiCI2XOHcCHZ6mUqfWYFEh8RkPhIRpCeACPnxUc2rmzUC5hMbgA4qfSZFUh8REDiIxmBxEcIwuFEPQGCIBwJGQGCcDhkBAjC4ZARIAiHQ0aAIBwOGQGCcDhkBAjC4ZARIAiHQ0aAIBwOGQGCcDhkBIjsgG82GiPxkc3AIeIjJm1ghENLCAz3oGM4dsOv9faq1UusgdxxSCnHM0+MJ7BlxUcKm9Dpi8+wy5rBs+E2+tjsE92Hr9RehXoJIluJGAE9ay24kMYlkQX24MVxiOSyPA+fnixSjdXlZQSDKwiMXopkuzk3vqhtT3WVVseloxbw/eeRzDj6K25m17FS1nugQtsXHwwMxGatnVxi7XCh2BtNxqnSXpV6CSJbiRiBrSw+4t7J52meuGICc8tyEzrPWjuxAL6LPczc/QgK7VWqVxUSHxGQ+IjtSCOwtcVH5iYCWGEmrvSFfvS287RahSira8UVX41IfT5qNVFWbHs3rt5ESHxEQOIj9iOMwFYXH7ndhZZL01gJs8G+pxFnr13Dqy/XoBgs9Ll4AhfM4gwjydqbbr1JIfERAYmPZAJhBBwgPrK6PI9lY0otTj4rX6Bl51+TtdqbTr3JsS66QeIjRLoII7DVxUe0pJkva14NX8RrO8rzAooZzbvOKv6a7U2j3rUh8REBiY9kAmEEtrj4SENTrbaKH/JfwqG2YTYAZ9iMth9tk3y1z4XiigOJi54W2ptSvRYh8REBiY/Yj1wY3MriI5XwcrEMrOD2cHTFnxO4PMeid0b8oqel9qZQryokPiIg8RFbkUZgK4uPyBuFnUVJQ1RwA0/uRnVrGbShZzRwlturWK8KJD4iIPGRjOAI8RF3QzcGG7mkmBm8fAsrL4JUlfaq1KsEiY8ISHwkI0hPgLGFxUdWh0/hpYvjmI8oXnDCCK3MY/wiL5/Cjcqwq14SH5GQ+EhGIPERgnA4UU+AIAhHQkaAIBwOGQGCcDhkBAjC4ZARIAiHQ0aAIBwOGQGCcDhkBAjC4ZARIAiHQ0aAIBwOGQEiO+CbjcZIfGQzyGHxEZV6AW9DO5rry1GkZ9bQyo6i5/IwjOkTONYFRdTaS6yB3HFI4iOZJ8YTyCXxEbV6m9DUuCdqADha2Ub4fCQoQjibiBHINfER1XpXVwIYvXQiUvbE9VnwXdCu0qqYhJmpCIqoiKUQRLYRCQda+8dQUxCXWIKjJ3ZYmUabIVVVupj/PeFe7zImoVAk6XmY0Nw7hr0F8xjYdyqSJaeifRBn97gx//YhnDJm2SxpRf9rNfDMD2DfKb10+u1NCg/NWptRzzwz3YEJLfkx3NMVm/6NkxDG8T330xg4bx7GJYY7PG/ETRzriAujeOr5s42oimgP8FwJi5ju60DPXLQNIqnIPcxe7MJCjaEdLITy37yMjltxyQdMzk0nIRxQ6QciJaQnsNXER9apl6cAa76CqiI+40/EpMmyU1BEBRIfEZD4iP0II5DD4iMxrFlvJXxDMh33G6/j5N5CBKcv4VBHbJLQVARFUm5vUkh8REDiI5lAGIEtIj6iUi8ftEVVJzHYXi0/R0lHUESlvckh8REBiY9kAmEEclJ8JJa16+XMoGN/tO7zA35tYdCz5zi6Gwx3q5KgSOrtXRsSHxGQ+EgmEEYgl8VHUqmXMTfMyg4EtBX/Qm/0m4+0BEVUxFLWgcRHBCQ+Yj9yYTBHxUfSrHd1Nax9pRhlYwRFVMRS1oTERwQkPmIr0gjkoPhIGvVySqqbmWvPc9qHcGdOD4bTExRREUtZExIfEZD4SEbIWfGRjamXzXmzzO2/EJ31lQRFFNqrBImPCEh8JCNIT4CR8+IjKvB6Axi/eDDGAHDSExTZoPaS+IiAxEcyAomPEITDiXoCBEE4EjICBOFwyAgQhMMhI0AQDoeMAEE4HDICBOFwyAgQhMMhI0AQDoeMAEE4HDICBOFwyAgQ2QHfbDRG4iObQQ6Lj6iUVRMf4duU21tfMLQ3hKXAMHq6TMoaqPYN4qTczkciGorIHYfUb5knxhPIJfERNRTER2R6sdj28my8rGxn8mmKn2djsv28BJHFRIxAromP6Fgta1V85LBML8bzC57jWXNZ2YPnBngGNriKq9GZqD2i7ek/3VgOT3gRfi0LJ0HkDhEj0FDBE02E4L/agp4psWf+7kwPWq762VGgoKQmeW69tVjoQ8uhI2jri+7bv93TgmktnZkHBbu1QzbTh7YjbeibuiM/A3duXYCftyHMQh5xiNEgUlwHZ3GpbRgyyS7u3h5G23XeD/nYXZGYnbj6dKPIcDTRhUnD1ve04KFZey8GR6LJQ4d6fWjwmrhkvKyvF0Oy3NjYEPq7m5OmPefhWXvvIEYM5Xt9Jrm6eOr57n5DvSMY6u9Gc0VsG3hSEZ4EtL0yrh1DvfDVRbMCRTA5t2RJX5T6gUgJaQS2mvjIOiQVH2EhAI8BwquJKctnlvER+5HviR2sPAxoYmFAiHkOayccUYPERwQkPmI/wgjksPiI9bJWxEdkIsyCKvS2Rmf83RV85qwWi5CeXVFjyMMAnqcw5Eff+UQl5NQh8REBiY9kAmEEtoj4iJrwh5n4yAxuTvH1Cva7mpMR4/L6WT5zyvktfC9ys1SfZjdKPjuPvi6YSh2kDImPCEh8JBMII5CT4iOqwh/WxEd4Dr4uLa+dPMAIB5fgH53VbirdW3LXdbIwIB9BnoNxYy0Ag8RHBCQ+kgmEEchl8REdReGPZOIjnLmeUzhiMBj7Dh1Dx7xLc6ODKyJ+KSvfrcW+nvKox8Bfegbk4nrxeSgm0LYOiY8ISHzEfuTCYI6Kj5igUjZRfCQ5TS/wBdIQFqfTsYSKkPiIgMRHbEUagRwUH4lDVfjDXHwkFje7CSrqWtE9KMQxwotTkbTcMx37TW+6i34RR/An3/jnSL59FUh8REDiIxkhZ8VHNqYsm/PixEdizylKeGUaV1vWXwBMKsShAomPCEh8JCNIT4CR8+IjqmXNxUdiEaIjk9fPYR9zqzd8/S8ZJD4iIPGRjEDiIwThcKKeAEEQjoSMAEE4HDICBOFwyAgQhMMhI0AQDoeMAEE4HDICBOFwyAgQhMMhI0AQDoeMAEE4HDICRHbANxuNkfjIZpBl4iOxrCvmoSISolA2E0IlRBxyx2Fauy+JlIjxBLJJfGRdMQ8VkRAlQRH7hUoIIpuIGIFsEh/RsviuI+ahIhKiKihiq1AJQWQZkXCgtX8MNQVxiSU4emKHlWm0GVJVpUvSv8cQYYCbuYYteLuw2yRhRQO6RxpRujqLc4cuxGYslu2F/xL2a+nEVcomp7l3DHsL5jGw75TMqLMx9SaFh2atzahnnpnulISW/Bju6YpN/8ZJCOP4nvtpDJw3D+MSwjMtb8RNHOuIC8946vmzjaiKaA/w/AqLmO7rQM9ctA0iqcg9zF7swkKNoR2hJfhvXkbHrbjkAybnppMQDqj0A5ES0hPIHvERa2IebPDyAWFJJESlrAkbKFSiAomPCEh8xH6EEcgW8RHLYh4qIiGKgiIaNgiVKEHiIwISH8kEwghkifiIdTEPFZEQNUERc9i/TVOoRA0SHxGQ+EgmEEYgC8RHVMU8rIqEcFTKCjZWqEQdEh8RkPhIJhBGIAvER1IR87AiEqKjUjaedIVKUoHERwQkPmI/cmEwu8VHVFARCVEpuylCJSQ+IiDxEVuRRmDzxUfSEfNYSyQkHpWyOukKlShD4iMCEh/JCNklPmJCUmGLmL8dxVQkRKWsfHzVjI0WKklKkno1SHxEQOIjG4b0BBhZKT5iFRWREFVBkU0QKiHxEQGJj2QEEh8hCIcT9QQIgnAkZAQIwuGQESAIh0NGgCAcDhkBgnA4ZAQIwuGQESAIh0NGgCAcDhkBgnA4ZAQIwuGQESCyA77ZaIzERzaDLBMfacKVsXqRny+eJLsN+fbWw62NqClldSfdkahWr5JYComPbAxyx2HCTkTCdmI8gWwSH1kPt7cWrVcG8ea1k9jLDYA8ni5K7SXxEWILEDEC2SQ+wvef62Ujr7jZuvZwE2qKPWzmXYF/QCTVXA8r9aq0l8RHiK1AlomPCLd9lzEJRTIaOjFYtSRDFenurxMOWKo3CYntJfERHRIfyW2kJ5A94iOWGW7DoUgy1ExhbC+7gfigJPERCYmP5CrCCGSL+Igkv/xMJNvwyMggen1N2Igs0ynXa9peEh+JhcRHchVhBLJEfMQMF1+UK69Pa3HSDJV6zdtL4iPxS58kPpKbCCOQBeIjgj60yJlBt/rnr7PBrA0Evjipy2ioknq9a7WXxEfEER0SH8lNhBHIAvERU5jVn7vVhVPSVXS7N+jiW6nXYntJfEQFEh/JRuTCYHaLj5R4hHt9byNcEQNJ602zvSQ+kgwSH8lGpBHYfPERM9yFFahrvYLTe3gLVhCYSPOmkqxZb4rtJfERK5D4SDaSXeIj8tHRRExuyKRlJSnWq9TeJOIYJD4ikf1O4iPZjfQEGFkpPsKFP2YxcO6lWAOQNnbUS+IjliDxkayDxEcIwuFEPQGCIBwJGQGCcDhkBAjC4ZARIAiHQ0aAIBwOGQGCcDhkBAjC4ZARIAiHQ0aAIBwOGQGCcDhkBIjsgG82GiPxkc0g58VHdKp9gzgpt9IlClgo1qvSDzb1meOQOw5JfCTzxHgCuSQ+YoT/jcZke2lTQKUf7OgzgsgkESOQa+IjEdzVON1YDk94EX4tA2ZyrNSr0g929RlBZJKIEWio4IkmQvBfbUHPlMgCeXemBy1X/ewoUFBSE0lYqcRCH1oOHUFbX1SE43ZPC6a1dGYeFOzWDqVM9elGkQVooguTFvbTr4dKP9jWZxweZrT3YnAkmjx0qNeHBq+Je8HL+noxJMuNjQ2hv7s5aTp1Hp619w5ixFC+12eSq4unnu/uN9Q7gqH+bjRXxLaBJxXhSUDbK+PaMdQLX100K1AEk3NLmiBGpR+IlJBGIAfFRxg8DGhiYUAoMMDiSEvpa9dBpR/s7TMV0Y3EkITERwjrCCOQi+IjPAxoKkd+yI++8yZqwSasW69KP9jaZyQ+IiDxkUwgjEAOio9Un2aDNJ/V0ZdaKi/TelX6wdY+I/ERAYmPZAJhBHJMfMRd18nCgHwEef5DSxbAoviISj/Y2mckPiIg8ZFMIIxAjomPlJXv1uJOT3lU/ou/9CzBxfXi81BMkGsgmfiISj/Y3GckPiIg8RH7kQuDJD4iUOkHm/uMQ+IjAhIfsRVpBHJLfGSmY7/pgL/o5yNMPDHIP0dy3ceRXHxEpR9S7TMLkPiIgMRHMkLuio+YsJ4IRiIm9ar0Qyp9ZgUSHxGQ+EhGkJ4Ag8RHBCr9kEqfWYHERwQkPpIRSHyEIBxO1BMgCMKRkBEgCIdDRoAgHA4ZAYJwNMD/By0pWICcBcq1AAAAAElFTkSuQmCC;" parent="1" vertex="1">
          <mxGeometry x="190" y="345" width="238.38" height="320" as="geometry" />
        </mxCell>
        <mxCell id="5z9il9UeBbhPQ34tfP2P-4" value="使用snprintf" style="text;strokeColor=none;align=center;fillColor=none;html=1;verticalAlign=middle;whiteSpace=wrap;rounded=0;" parent="1" vertex="1">
          <mxGeometry x="250" y="680" width="90" height="30" as="geometry" />
        </mxCell>
        <mxCell id="5z9il9UeBbhPQ34tfP2P-5" value="不使用snprintf" style="text;strokeColor=none;align=center;fillColor=none;html=1;verticalAlign=middle;whiteSpace=wrap;rounded=0;" parent="1" vertex="1">
          <mxGeometry x="485.25" y="680" width="106.5" height="30" as="geometry" />
        </mxCell>
        <mxCell id="3NsuogBBQXZcK-EeE4zb-1" value="" style="shape=image;verticalLabelPosition=bottom;labelBackgroundColor=default;verticalAlign=top;aspect=fixed;imageAspect=0;image=data:image/png,iVBORw0KGgoAAAANSUhEUgAAAQMAAAFdCAYAAAAHVQhMAAAAAXNSR0IArs4c6QAAAARnQU1BAACxjwv8YQUAAAAJcEhZcwAADsMAAA7DAcdvqGQAAD1uSURBVHhe7Z0PTFxJfue/YLtnZhvtukcXMxuBFDOJINmwI9G7El4J9iLYJHhHkDh4x/HZZzQOIxvHCGscLILPXI/sI2bZw8IH+Myyx4QRx8wQNjgMZHdA2YXTgjLTvsz2rgZ0t/gU0CU9kaa9uWZ3pv2Hqz+vu193v+5+1X/obvz7SK3ufhTV9epV/epX9V79vnnPPffcNtJI3qu/h31fPIg9W0v4ZctPtaMGlH0B+775+7BYtO86Hv9shv3vmvYtvZgub1r5Aizf+33sE59/jk//07fx8IfiS1Jk9Ny+Woun/vwF7NW+Sjaw9XtvaZ9zl/zBV/HM8+yD9wNs/dG8PBiX9FzjZMjX3tPGnq/8NvY9Z437Q3u6pCHY/vgn+GXnDdZIvoWtkZ/gIftb/vO/g71fl+nSjdnyppef4uEHPwe30o/++YOUNZKMntsP5/Epv6bs9Yv3fq4dfJJJzzVOhsy2eT/n/xhPPcvemWX9xR9/D4/ffySPv/U9fPqjj9kHK/Z+tUgee0J43P5t/IJ1nE9OvacdIbIe76faB3Nk2zXOe/6Db24/+O634LulHdFz5huw/mFxiPuTd6YW+75aij3PPq1Zkod49PE/4cGbM3j0178QR/Ku/gk+8+XPic/RePjeX+LTy/8iPu/9q1fxVMEn8I0M4EG416i5l5/+3pvY+zcv4SnmPWS6vGbJ6zmDz7xgZZ8+xid/9t/w6MfyuKSInTc7nwLWKD5k06A2Ng3ylz+EKK60P63vJ/jFsb9H3jf/CE89/zlxjo82PsCnvfPYXlU/t2gub+D4z/4WW7ophpn6DSdYpiSnCVodPJh5E4++ws7/2b3Ms3Tik+5/wV7uabK6fcTK+0ky5f3qF7H35a/oPKotPPzwR/i0LXgxg3XzLrbe/zye+vpvYy/77W2e9gfT8HX/k0zIUbjG/nwfvjcOn/sQLL97EHu592yUL8f6WeRfZFOPLxWLdOLcNn4KX/88Hoe0vSDN/VNoKAHWpzvk+eUV2sQfIrDuke+ej+Q765iWP3wB+wIVydnLKrYYT589jj1f1Q6pwPLcwyoO3jU8fOfz2PNt1oG+9yp7ncPTf/MqLF/8SLhS1r8qYxda/Edmy6vA9lvMFRSfnmXTnM+KTwG+/gXRYPgFe/ijJNZDLAew75vHWaORhoCzp/gFPN36Be1bGslw/frZ++JLeJoZgjz2Of9Zdu7XpCHg7Hmedf5vyM/K5WUd95k//xqeCplaMS/1N78Gyxntq57iKjzzkjQEnDyWdt+/PRL8/QTJf+EInnlRGgKOYb5W3nea8cxX/IaAw86NtYVnrn0D+WXaoRCaUV7CE1tQUt2oneO+0GUdP3k2PqrxOY1/RPwU22zU+WXvkJzT81c/m++Iv30O+74uXfnty98O/P1TrzgkRxT///Dj/lGWF569Pfzwp8i7dgRPF1vFRc3D09hjeYhttzZlKHgW21vyY0bLq8L7S3j4z/Lj3rIX5AeNvK8ehDBd3tWgN3TrrcDvmZ9XM2PARo8H3/9L+X8fyErKf14ag7Sdm8Bc/aabPHzCvMVhdu6fsG97kW/5OfOMbuCXG/yv7PvzfkOsUN6yCmY4ikUH2fbeY//zX2T609/BL75/D49lqlAsTyOPr3n9GUt3bAY+Hz/4NPZ+hbsNGglc43yWL+Ll2/r7cqrNFyNHhuVvdL6LBzytpRhPnSnlfwxjGK51nsCHjeU5aQz2PnuAvzG39hysbFR+ukdWSl6B7FyPPdqQ/MMl+P6EuRzv6typd+bxSGtkewpiu6NG5BfzM3jI3JjPMCvOTpqfTO+41nC3mDHg7wwfu5Afy8rLZHlVefT+/xWeDZ77dez5ojjEKGLnKsv68Md/L96T4eF7U/B9S3bo7ff/SWuon8XedI/MWVC/go9/zKaN/yraCOfxh8wIv8sGEdFpGNan5LtCefNeqtBW+rfg+84U+x9tPWDTg+1vTeGh0TTVt4FPHN+TLrlnjbno8rDozMlgIt89Zc+KQfTRB3+Lh2+xuuC8/2M8+ED2mfznf028hzPcegQvvngEZwfvap6BRbrXsjOy99+UowosYsxm1lS3MPL1L2Pv62fwNOuEvCPyF5/3Jkqe8Pi38PjZg+zk2MeP/zcevcvKI1ydf8Vj/yqrjxmGTe0kM1heP3ze689P/3rq6q9oKTS+c1daZzZV2PM1rVEGpggf4+F3PeJQ4vyc1Zdu7vjWNH4pRp4dulWV6frl+I2/xmNv6PcQTJY3r1AzDL57bPoqP8bF9zEer2qfU0ncfL+APc/JT3teeCmkvgLrRZb4hjlfOOG2A8xtlXP3h15mSSy/jr1/8CvIL+R/ZB1Vs0RiDtVaLeZQ2uw8afK0Tr/9ofjKLuy/sJGUzX/5cW7pvygtnlip/dnHyHR5ldlaY1Mg6brv+6I0Wv4pAndZQxcVc4xsqF8Vcq28O0y+cCktVuSLuTsbqd78P2xs5fMR/4rnv+LRMn//PPZ+Tc6h+Dw38CwAewXmogZsx/ibIdyl+8avyd9h3gC+xlxq9vGR+x7wo4+kC5wF5dXPxfUvo/n39g/vSSP2XCn2FP2KNkV4iAc/usuP7hjK18KPjZU7fAE8wfo1i0r9mkOtvNtevv7AsBzcsWdcEod5Dto5PHpvPKS+gq/4d23yH4sFhmexl43A8G7g8VureMSO7Xm+Qoy8CLhcrEuKUZxXFOuU/FkA22eRf/Uk9sVwCwOLfsXMlflSDHvs0Vz7534H1tNl0nIXvIBnfvdXmWewxVzeTTbKspPOlvKq8M738EAU61exp1Urp28VD77Dj+0cZs5t+2MtEavjfL7G8cXnsXfwRYMnQxOr38yhVt7tH7LpqvhkhYV5FIEpXpENea8egaXLYLqSMf4Jj34mr9ueL38d+858Xnw2A7+1ODMzhf7mUuTL23Wsc7G+9ehnq8xF38SjD5lVLPicWOUP3KZjxx//TFrLvOeq5ZxkohnPfPmAtLZRePyhtoBmKcbT19oCcxn/3E+OVuyi2Jbge08+kbXNLff3tdGUGYIHP5jW5m2b2u3FzJU3UR79SOa794XfFuV89GHk48D6eXLw2YDiwDHrX9VqxxLDzLltL2v1ztI8803292/+gVilfuT1WxI/avWb7nOLj2J7YAb8U6095vH6uvin8n9GXsZnfvcg8uTqojLpqoft/r/T7jJ8DpY/PB7MT3sZt9+wW4uB0QKf4OGP2OjL2H6fVZz4xBrBx/6RljWmzil8svHzwN+2fR8zV/evY98iufnfWcfewEPfQ9kQw9j28Bs7n0P+l54SriF/IusXf/QOHn+L/ZZwb26FPFyR6fImzHfX2MSANQbxhZXjLVn2HcXMufFOMHNPlJUj6uz7b+KTd4P16ieh+s0gquXl7fGXb37AvLpPgv/DvdQP301iupImNtfw4N//JX754UfCUzZH6K3FtG9Uisv5P8ZnXmRTAaVNHgRBpJpYHvPO8N0fs5GKvRe8gKe//WXk+Z/7KPk88juybW5GELuXzHsGHH7LR3vaK5xE9gQQBKHOnoKCgv+ofc4c7/+UeQd7kfdrhch/Jl/Mq/l87uFP/gd8HfdkGoIg0kp2eAYEQWSczK8ZEASRFZAxIAhCQMaAIAgBGQOCIARkDAiCEJAxiIa1Bp1jM5iZGUNnjQxEQuweqjrH2LWdwVR/s3aE2NXGoMoxIS54Qte7ohrlIvCKDeXVFeJQPIpahtjvTaC7TjtAZClVqJUXF5aScpA5kJBnEI27i3CJIEQeuBbNxB2owKlDxSy5C2/PaYdCqNA8Dfaa6ka9djTXae7n59SfYx1qCfPy4sK7uohh8YkgYxCNrQVcO/kiXnzxJK4thG/fNaDuqPAkNpZfh6HpqKhDGfu72+1mw1EpDu0Wa5CjLF07ya7tizh2cVI7QiRuDJr7zbvgKmlzlFM1pSjwrWLldeOtyRV1ZWzCsY6VHhfcsODgIZpLENmFfBx5fxVaXnsFtSU2fzAYHV44rx9D15L21Q/v4A0lWJ9+Ea3x/CyVtGbg5b3chOqyQsggNT543etYHO7C4EpwFOdrBpfsgLOvC87KNhy1F8PGT9C7Aef4DXTd0ekVaGU0Im65i1owdOswbK4BHOswmiPwKcJrOOSbx5nTCzg+0o1qqwsDxzoQkdpajsa2FjT4y8rwbjgxOdiDSZd2bhWdGHvtEGzuRXSc7oFLHg3QMjSDw8UeLF9hXg1zU2Q9PMDy9R6s1bagkeUt6s2oHjSs5Y1oa2mAvdjfJrzYcI7jbNcd8c0PnyY0lKxj+sXW+O62yesmUGmTptM2o3+mASFXeX0aLxpcXOU6S6QPmUGlzlQwyJd5BlXovHkJhw1PIgux1sDByxs4CY4FBYVlOHz5FhwRK/8WFB134BU2n/d3LhQUw/7KZXRWad+TpOLUIRTztQXjxQKgvBaseuFeW8Am67rLm15WhoOoNPj95m4HmvRlZRQU29HUfFz7xrh7By4eQr6wHPXha5vMMJXzeIUby8IQBLGi/BzL29+oOaIe2tASJm9grenEre4mHAoYAk4Biu3H4Ui0zpSum0qbTGf7NVtnaSqDcls3SZR889HIrD9rqD73MgbOvCTmUWf65rEhAqCsYvSlBC1amqi73KyV14nRKydEeV8604fZdR4/zQZ74ymZMIAFhYUF8K7Poo+f30sdGBWLRyztYd3EfbhV5KV/XXcaRMqMoA5H5WJBWOcLUl5XikI2OVibk2P40so9NlYUoLQ2vGdpYajYiH9VuxYvnjiPvmk2tQgZBFwYd/IQ0DaU1YVag6JGOzNMPqyuvK4d8cMaUYFF1MP1EzzfK5gXF7kY5fWhHbG9mXkd7JOos/Oyjk+c78O0axOJjkVK102lTSq132G08joVr2k2aYuHyTpLUx9Sb+vmiJZvfmVpITtlYHPlGuY25aXeXLiBcRf7QUsRyv1trcqBCb4S7n9pLnVJg+4Ye4l1AZW0StSjupTZMlbB061dmLx7Xxzd2lzAYOvr4EVGcVnEyrbX2YdjrYNY4Oe35cLk1UXRECxF5aiUSRLGeqoGpQVGnc9POepYHcO7iWW/Pz+3jHusoRSU1rKup8cj49jZSlFXqTmz9+9hYbgDpztCXdnN11ewytLayhtC8mgs57+1hoXXI7utj7nEvB6WeLXdv4sbd+X6hq1QZ1DqD6OcV/HGrKyze7KO799bwHDHRfQkNDCoXTfTbZKhkjYRzNRZesqQWFuPT/R881c+krdYiirbUVMkrV1RTRuO8xbBxgFPVoUTKIRV1PoaItv6HJybvCcdQFHYgPsRO9EQtlbh4ZW5z6Kp5iTOqcoyWKJ0PkF5HYQtuLeCYD+6AyePPVdQgtBHGCYxPL0Kr6UQ9qZuZjDHMNTdjsaq/drfdWy9joU1dhIFpQg4GOXt4LbA43o7ci2CsemKv2BTVHJANuy7g/JASlC7biptMt3t10ydpacMibX1+ETPN5+1PnBv2FJYjQu33hQj9q0LtShm/+BbncMN/+L4UheOBVws9pqWThZfXAscYy+xFqOSNuU8gO+B9jHdVHSyeXX0zseRUwTWZ8vPhXhFTWX8ikS6+WuvX8Qx5o7enndhw2NFcXk1mi69Yfik3NyiNt04LO9MVNSXs9/awPLrZp6LMEa/VrGz6K6b2TbJUUmbLjJWhtS29XxrY51wC70e5qJqB+HzsCnwbRzJunuwmhtdVIpTuimbwFoPexGvfTY3X9GORaOiGiXCaHt0o7U6dUfLWXeO1fm0KUIMbCW1LFUYzB29c6MDZ08eYXO5ASy7fbCU1KE7/NmEubfFg1EFB6tRhwrUldlY41vBYBKNz+WRw8WBklQ+CKF23VTaZDa03/SUIUVtPYLo+eYfr2ZuLmvQKwM96Hr1jBy1j5zE2Wuht5Cyg0kZ2tlShobeNtQclO6ztagGbb1Ncq67vsJShbLPGlSgLapsRPcFuUC24UyisVhPoYbNvWJ2Pm2KIG5f6Twi/2te3BEoRZ3fGlR1YmjIgeaaYHm3vKtwfcSvngXWCLtyF68vb4ipQk1nA8ptXqwtRFu7MMncKmsN3JNpwoijEZWa28vruLm7F+3KbilH7bqptMlsaL+JlaEK7SNcwGQGE4aLZ4m19fhEz3fv5hbzb1CM2svdCJdv8HnWMT/Qkdz9zBTz+vAc7N0NKCmuxYWb7KUdF/jWMTccWT3Ftd/CTNjJ8YWhs0kMoUWnKlFm8cIVo/MVsU4tbIFrXB4IY2HNjdrCQpRya+Diq4sW2IrtaLjAXzJNAN8qFg2y2WReyfrhBpQdsrOhyYnZaPMVs2wO4sZ0GbobSlBob8Jl9grihXNW+xhCCRpYo27QvgXQ3cNXuW4qbVKp/Ro9S1LSwDqkLLnXeR3HElj2T6gPVdWiopCN7owCbX9E+Kw5kbZuhmj55s8NLIiRgOMT/kMQi60Eh9u70Rx2H1qg3YozNe9XSRuPtWF0dI1ieUPnkrFG6l6dxfWXWzGsexbk3uIKXDyd/rT87pvpwvj4v4QRbx+CRKzsw431OWNj6lreZCXnzkGNPLDUhYHZVbi9ugL7/Od2EZNG2WwNw8lvKzA8rumkpj1+1tj16hpdxoZHXw5eb+OJ32ZWuG4qbTLh9ptCEirD0jzusukfx7vuMn5gS6HOlIiSb95/fuf97WrbBma7LmLQ/4QbZ38F2r/1GqpZe07Zk4M5Ro1jAmyQjnx6rK4bE+fK4Zk9k5R3kSraRmaYh8Gu4ZmzSa0XZAes3Y2wdmeqTaqk1Y6nnGwoQ2rIL+KDF3NPCw6Emq5SezUO8ok1G9k2lRcpco0qdA71o60++NQBvzXUKCZmm1gPWx+Mtw9hpxDzx6EpZgiYXXdO7gJDwLHDfJtUSZsusqEMqSHv5rvvbx8SBTbG67qNYx3ZuJiYSqrgmLgEO+v74bgXr+B0T+K36tJC+NzX40TfmS6Y2VyZ/TDDPHYJ5tqkStp0kQ1lSA17/ud7nv+4/7d+A5//bAEsOpVun2cD//D9W/jTnne1I7uZf8Q/uPfjt37j8/g3BXJRx+d143/N38Cf3nhPfM8q7HU4zvdDsxmfZ/176G//Jn7w/+Sfcp9/xNLfbcBcm1RJmy6yoQypgURUCIIQUHATgiAEZAwIghCQMSAIQkDGgCAIARkDgiAEuW8MSOxkV0NiJztHSoxBsuIhPPgkv+AJXW8SO9nFkNjJTpICY2Bu007aILETU5DYSfqp6xzBxFRm6ziZMiRvDOKJh6QbEjvZ1eSS2ElRYSG0B1gzRjJlSNoYZMumHbPEKy+JnRBPKsk9jhxPPMSkAARfMyCxE389kNgJK23uiJ3EaI9+IoKm8LbTrisr+103mwaNXtWiMOsx084SKYMBSXkGMcVDSOyExE5CUEmrSobFThQRbUdfVvapsOwwLt10ILxbmGpnKSIJYxBbPITETjgkdhIYjHar2ImuPcog4Nz78pddvvQjchEbxetY2/FtzAeuWaB+bXY0ntJbL5PtTLEM0UjYGMQWDyGxEz8kdiLZvWInatSVl8DC6/fijcA1E/XbsShCpxWX6deozLezVJCwMYgtHkJiJwFI7ESwe8VOVKhC0QH2ZinD0Te129f+15uHmR/DsNp0ofMV2lkKSMwYmBAPiQ+JnZDYyZMidpI4Ku0sWRIyBvHFQzT3hsROJCR2sovFTsKxsimh9jGCJYjL5nPhdticPvAyuOtkup0FiFWG6OiMQTxRBw0z4iEJCkCQ2IkCJHaiTLrL4N7i178QFccbURHFk19cZ6OCpRzH+9tQXxl2eygc5XZmrgzR2Ku9sx+OL+rAMSMewiGxk1BI7MR8WsP75pkSO1FgwbmOpvIyYaBfeyN4PfTlvXtjFM6yC7AzT/OVy+wljgYJfVZGvZ2ZKUM0gp6BGVEHlX0IJHYSComdmE6bLtJdhq3Ji+gR7UI7YMTWArrOX8fsqhv65mNIAu3MVBmioPYEYpaJh/ghsZNMoCIekg1CI9lQhuxGaQEx8/sQqkjsJGsgsZPdRo6FSiexk+xBRTxEJW26MFuGwsh9EVExudcjR0jsOYOMsYS+gVms6iZEXOxkdfZq9hmCELjYCZvnnd8thoCzhGtR5r5cPMQ5fV3XuVXSpotsKEN2QyIqBEEIcswzIAgiXZAxIAhCQMaAIAgBGQOCIARkDAiCECRsDEjcgiB2FwkagyTELfiDOMyIkA0hiOwi4ecMuGdw6ZAN3tVRtZj22lN52foMOH90+FRbE2rLbLB4nbh+rMt4U1FEhFv+YNE8bl8xiHDLyGy+BtGG/cQqC/FEkfA0IZfELcxgLa9DW/8Y3rx1AYd5x9KORyMywq0FtpLICLfZki9BxIMWEDXqTjWLWPo8ko9zVAanjIY/wi2865jtk0EyTlyfhQwgbMfxc8EQadmQrx++p10E9NC/yCsgNPK5CAUXIXVUlaLeMYQJNp/nc/qZiSE46oMRViTc3QzGBxSvmFGRmMvbOYSxKV36OGIPmWJyZU3uH3j5NLomPYgVnrGxsoSNxF44B1oxuCC3IN5fGkTrgFOLexAMkZYN+RKEGTTPwIKSV7rxit49TVrApAItvZECEFnLZAdO+kNtx6QZJXwrrPsuJnVD6v6KRjiaymX9FRYFQ7tnPF+CMEfAGNhYj40rYKIgblHU0ozDPOysx4XRq1q8OfZ6dd6MQxsdqSYc4zXhQML2ywzlNoip+5ZHBq7kcl39E3jjtSbYtbBxvN4OqAo9pCtfHQX2S4F6mpoaw5CjGWmKuk3kIIE1g9QKmJTjOPMywGaysx0dzKUNRvNY28pxh3a/VXRaHjWr0TGCqTe4XBcft7nG4SimXXx/7D5YVIUe0pVvFCwWG4rtDYaSXsSTScAYpFbA5CDzNNib9yO4UhzVZ7jV75lEeaV7Qez+lpAus5Q1oMkuFXqkrNcxnO2ahFQhSUATIl35CvQeHXudOI+rtxelrJhYmEwgrjax60jT3QRNmWc3wqZP/vgkQo+w46WgrBfziGxilPXgI9XwWenK14j797BypwcXtSmb1UpzBSKWMUhKwETzKixWEYJcT3N5ciFwM75mgBVsch0F1jGdA11BWWxORb2QTYN7k6VSJV35RqfUJpYl8WDHpK2IbCZgDEIETGpa0N+ejIDJEpseMB+Ui3E4pKSYWBUfmUIDv4+e07gwv8Z7rQ2H2nvRrClV7K9oRm+gzsYjVXHikq58I7EWVaK+rR/tIiCgG665JzgKKBEg7+h//cH2JaMIowwuYBKiWxAe4DOMEKGGqk6MXZKNOIgP7tVNWMtK8FG2PY4c59xCHtu11sBx64KQ9w5Htc52JN+oaX1Yn+5g10EnhkA8sRhPE4QQxyi6kpF9XrqGq2+7gmIOInBpD1qnI5ROcg+/EMZ6qNAIX/VPqs7SlW8EPng2ljF65WUyBESAgGfwJItHEASRtrsJBEHkGmQMCIIQkDEgCEJAIioEQQjIMyAIQkDGgCAIARkDgiAEZAwIghCQMSAIQkDGgCAIARkDIrPwTVQzJKqTDcjnDBSFO1QwKx5S3tiJlgY7iv3RU/lmKec0Bm9MQr+1n2MubRUcE5cQZUOmJLw8CvVgLW9EW0sD7MWaZoEow9s4e+2O+DthEm1HJe2NyTzCMzAr3KGCmshHM5qbDgU7N4fH6DvUBIejUTvgRyWtGqYFTGocuNXdhEN+Q8ARZXgFU73JlYEgMkW+inCHCqoiH1tuF6b7zgfi9J2/vQy3iI9Szbp/KObSLqHrmC7un+710uiq2CLsXZsPeAUq9bC1uQmPxw3XdF8gzyuz6yJPS1kNWpIL5kQQGSHvL955f7u20Avn9WPwxyURVDkwccmOAvciOk73qEfYaezGWPWG5mJrWn8xpglGtAzN4HDhKkaPXES8eEvm01agfeQ1VBduYPbMWQxqAVvbRmaQbD1EzUMFPlVpa0ED81D8zo93w4nJwZ7QUGiciGmNF+7VRYxeNZ7eRUxtRKyEcZztCpva8DDtl5tQXVYYmC553etYHO7C4EqwDFyA55L9AZav92CtVlcO7wac4zfQdScsVoLBufmJmCao1AOREvKVhDtUSEbkY/9B1LT0o7qYyy7Mxe7cKmkZ1sbjqGTn7HXdCRgCPvVIXT1sYSuJdRYxVQkTnikotqOp+bj2LUjktKYAhWXG0ztrTWfk1IalL7Yfh0MfNJJHW7p5iU3t/IaAY0FBYRkOX74FR8S80Yryc2HlEAI8bWEekpqojko9EKkhX1zaNAp3mIcv+GlBTd+4iQuHi+BZ7MPJrrAQ7gKVtHoqcK6ujDXtDSwOzGnHGKkQMClt04KWrmE+4UCFzSjnUxXmhVzlYjZ8CnLiPPqmXXCHDYb+aY1vYx5950/I6c+ZPszyeQ2b1jSe0vfEKrQ3yxB0QihHS3/ifB+mXZuBqMycusvNIuyaiNB8JSxfloO98ZRMGIAZigIpwHP9BC/vFcyLGOzFKK8PGg41UR3z9UCkDmEMdkq4Qw0LiqsvYKyzRvseC3Npg17BnM4rYKRAwKSlrRqFPLLx+ADuasfU8YgywFaKukotZuH9e1gY7sDpsLBndeUlsPhWMX3xBhbuSVdka3MBgx1yfaa4TAaiFdQfRjk7Hd/GrBTK0dLfv7eA4Y6L6Al4Q/WoLuUJWb6tXZi8q8u39XW4uD0oLotYw+HxGQNh3e/fxY27snJthf51FlVRHfP1QKSOfG5o0yPcoUrogt/VUadYFLQdOofexuAII1FJ68fvFbixMho2R05SwKS5f4qNenzeexVdC8kMXZMYnl6F11IIe1M383zGMNTdjsYIDbQqFB1gb5YyHH1T85D8rzcPszGZYbUFRFqLSg6Ic9q8OygPREXTu9hcw+sRpzEHJ494jQMoCotFv+mK10FVRXXM1gORSoQx4KRduEORlckutI664GPNuKg89h0NM2n9XoFvdQ43wmOAJipgYq1E2xAP/84MwSwrQwqCi669fhHHmKt9m801NjxWFJdXo+nSG5hK4qkcM3N08yQyOKiL6qSjHojY5O+0cIcKW1s+cbvODLHT6ryCcaMlxgQETPbXwXHrMmqFR9CB1sGEFwoiYa72nRsdOHvyCJuvD2CZuT2Wkjp0BzRwl+DhRfS5cFvzjiJeujsfLpGYjeklehFdIzT3vKgUp8IdLGs97EWsR/vcWFNuEAmK6sStByKV5Ccm3FGF9pEp4ZZOpMlSl3Ihl2Y7Cti8/d6KbonfgHhpg17BInoMJ/SKAial9ei+eQ52W4p1B6o6MTTkQHNNUNBmy7sK10e8h1pg1fWkxXUPO8Tm4v1tqK+M82DD3KpYRygob8KIoxGVRbKn86dDm7t70R5w+yfhWme/xcVvettQc1DWA0/X1tsk1x3WV+LesYlEUVRHoR6I1JH33PP/btu0cIcf/7138WUd0y+2IiKV9phpVEyJfLCxarkPJ6/p7hKopBX4nyvwYPnKSVyLtrqnIGAi76/LszdE8XmKACH1GoZvFaMnL2LS77TEKC8n/L59Kau3blZvkV0v7LmI0mb0dzfAqI+yisB0B7vWmu3z10PEMwLaNUpYVEelHoiUkZ+QcMfSPO7yFTuGd90VaQiShot8uDB7/YRB5w4ndtqgVzAf3RBwdkzAJAZLXRiYXYXbGywBfPxBollcfzmsA/jLu+qGPnk01oZb0TW6zObf+ry5WM546ANSa8Po6BrF8kZoPcgyBA2BMiqiOir1QKQMCohKEISAtjATBCEgY0AQhICMAUEQAjIGBEEIyBgQBCEgY0AQhICMAUEQAjIGBEEIyBgQBCEgY0AQhICMAZFZ+KamGRJRyQZ2sYgKR4vKrH0LwagsKvVQWo/OtqM6ERUvNlyTGOyJLC8RA22HI4moZB7hGZCIisR0PYhtvq+EiajwSMOsDN00xBG5yS4WUQnC99X70wZeYV6BSj2caq4T+/09rlFc4RGBedorozx6GiwlNejWxSIliFxhl4uoyN89oA+yEQXzIiqN6J1qQtnWMq6cvBYaCVlLC2cf+714cRiioCIeEjGtIREVInGeOBEVY1REVFhH4o3TtxUZEn1pEx+xtwJbjAhPcSARFQmJqOw8T4SISoH9kkzLXlNTYxhyNCMk6raSiIoW3LOwGkNtQZ2Gg5WN6ByqkYuVtgOJGVBmlEhEhUMiKpngiRJR4Vj4YqO9IXT0VBJRWcL4AhdZZb9ZeyFgZG4yt/pQsTY2+h6EdDDzmBcPIREVItXschGVYbRqacSLjS5Xb7POIhoaXxTUZEYURVR4PMEeEaNPfuf4PGyePL0sF0r9HoYyJKIiIRGVTPDEiKgI2OiycqcHFzXX1GrVGlcCIiorgxdxWmeQjpw8i65Vi3DFPe7ETAGHRFQkJKKy8zwhIiqhlNqkO/8g0KoTEFExoPkoX2z0Yn0xyRojERUJiajsKE+EiIofa1El6tv60X6In5kbrjl/q1YUUdFhZR2nsr4NvWNSEMS3vhB6a1IFElGRkIhKRtjdIipR0xooISmIqISefxCfexEDrT1IWHs1Sr4CElGRkIhK2tj1Iiqh8LTLGL3ycqgh4CQsosIfyFnF/O0rOMJc86REmElERUIiKhmBRFQIghDQFmaCIARkDAiCEJAxIAhCQMaAIAgBGQOCIARkDAiCEJAxIAhCQMaAIAgBGQOCIARkDAiCEJAxIDIL39Q0QyIq2UDWiKjoqXGM4YK2HS+euEbctAmeW7x8IyINCyGXt3H2WlikYSI22g7HeNeZSD/CM8i8iEoQaw0vS5R9uWGYSZvIucXLl/89ItKwEHJ5BVO9yQm5EESmyBoRFYG1Bu1Ndth863CK6JsxMJE2oXMzke/W5iY8Hjdc032ByEJXZnmQVB6/oyYsRDhB5Ab5jZU84IUXzoFWDC7IaJX3lwbROuBkR4HC0tpAYE0VJlfWmDvO95+fRtekB2bC5tW0N8Fu82F9rgfzcfbom0mbyLmZKsPaMFpPnkbHcDB+wt3BViyK0Gk2FB4UhxKDT2s6hzA2FQxyOjHkQGO5gRvD0zqGMKGlm5mZwEhvS2gYeB18atM5NIYpXfohh0EMMR4qvndEl+8UJkZ60VIZWgYe3IQHK+2sCivHxBAc9cEoRQEMzi1aoBqleiBSQtaIqHDXu5m55l7XKJs7xg6hay6tijCKRKUM0dnCVhLrLCSiIiERlZ0nO0RUuGvOYxh6nRi+GmcBzmxaJWEUhkoZjCht0wKnrmHeKFiiKUhERUIiKpkgK0RUatpZAyzwwDkcP2yY6bRKwihqZTCipa0ahTy68vhApOyaacyLh5CICpFqMi6iYq3vZq55ATw81mCcXqiSVkUYRSlfA5r7p9iox29BXk3o/4OQiIqERFQyQcZFVCrsB8Vc02YPSpXxF4+6yylpkN8n2MRWJa2KMIpSvnqslWgb4uG+mSGY7UJEkNUEIBEVCYmo7DxZLaKSHKkRRonK/jo4bl1GrfAIOtA6mPBCQSQkoiIhEZUdJeMiKktdxwwb83Unbz3y6T/+ncffV0mrIoyili+jtB7dN8/JW5Dh+gvJQCIqEhJRyQjZIaJiQFSBDgOipuW3yVTPTUe0fP3Ho2LysesISERFQiIqGSFLRVRSRMLCKBmCRFQkJKKSEUhEhSAIAW1hJghCQMaAIAgBGQOCIARkDAiCEJAxIAhCQMaAIAgBGQOCIARkDAiCEJAxIAhCQMaAIAgBGQMis/BNTTMkopINZImISjP6ZxpguMcxyv+kJd/SenS2HdUJo3ix4ZrEYM8k9OEQOBEiKgyfdwOuyUF0TaYwtsFuR9vhaGZ3KpFehGeQTSIq8UhXvnLr7ithwigFKLY3wdEdNmwVNaPbER5pmCcvhr3JwUY5Ek4gco+sElHh+9/1wUXEK2z0Tle+p5rrxB5+j2sUV3iUX5bmxJVRHj0NlpIadOvii5YfrwykDYneO7/BfCoLSpjBIohcI6tEVMyQnnwbZWhuzzL6OiahBQXG/buT6LjN66EABytr5EGGdR/3B3hgjjmsbGrzBx69d46Vjf/FZ7BH3ywkoiIhEZUdJ2tEVEyTlnyZuy/691ZkmPOlTXzE3gpswUa7MueCm5nQsqMjGOrkYcSKUFHfhn5HrQyXPq0eGMwPiahISERl58kOERWNAvulwCgwNTXGRq3mqKOcCvHz1QJ2FlZjqC3oARys5CNpjVyAtB0IGsW7PWjtW4TbxzrToSZcvnULr71Sy9Kxqdb187gWuZJpEhJRkZCISibIChEVIyxc1djekNQiphHG+S5hfIELp1pQXBsMl37zMh9JtfHO9yCk02xtrmJTH0KMU8DyLhSqBQliXjyERFSIVJNxERXJMFq1kcI/Cly9zRq1aBB8ETORVQuO+Xx5jMAeEXdPO8DweTaYy78sFyn93hNHu/PAvSe+iNhxhsdZlCNneVJ3E0hERUIiKpkg4yIqhrBRYOVODy5qLqTVmqJGECfflcGLOH0saDyOnDyLrlWLcK897uCzA43anQevsw8nOyZZA19iI+cxdMzz0OwWlFQeT2jRlUMiKhISUdl5slpEpdQmXfQHKXZNVPJtPsoXUr1YX/TXQhXKuZgI3Lg7GZRk57hurGCdf0h00dUPiahISERlR8m4iIoR1qJK1Lf1o/0QL4EbrrnUmCOz+VpZZ6isb0PvmBT58K0v6MKJax2R1U5pY1CQBPsPoqatAqJpJ2pASURFQiIqGSE7RFSipjVQLEpXvlGEO3zuRQy0hiozWxt7MdZUJubhkfC8W1nepibHoZCIioREVDJCloqo+ODZWMbolZdDO2zSmM3XB697FfO3r+AIc7fDhZW3Ji/i5euzWNWvNmr/M3ud552AIeCQiIqERFQyAomoEAQhoC3MBEEIyBgQBCEgY0AQhICMAUEQAjIGBEEIyBgQBCEgY0AQhICMAUEQAjIGBEEIyBgQBCEgY0BkFr6paYZEVLKBnBRRiRAw4RtunG/j7LU74u96kkrLiCaMopIvEQNthyOJqGQe4RnklIhKjSMyyi+Pa3joFUz1NmoHJCppVYRRlPIliBwh50RUtjY34fG44ZruC6S5MsuDmbL+WFYTEp5bJa2KMIpKvgSRK+T9xTvvb9cWhgW44PgDTLgX0aELoWWaxm6MVW9oUw1tGhBnmnBAHwxDkbaRGRiehwFGaSs7x3D5kBWrb5/ERX000NI2jHyrFrbVURy5GDvGj0oZosKnbG0taGCemj92oXfDicnBntCwdJyI6R3f87+I0avG07vIaRCPWzGOs11hUxseMv9yE6oD2gk8VsM6Foe7MLgSLIMMbvIAy9d7sFarKwebWjnHb6DrTljwA4Nz8xMxTVCpByIl5J6ISky2sGX690LTpk4YRaUMkZCIioREVHae3SGiwkZvGbx1DfPxXJhoaZMVRlEpQ1RIREVCIiqZYFeIqLS0VcvRe3wgUh4tjFhpkxFGUSlDdEhERUIiKpkg50VUmvun2IjD55xX0RUerDCMmGmTEEZRKUNsSERFQiIqmSB3RVSslWgb4qG2WSec7Yod4NRE2oSEUVTKYBISUZGQiMrOk5siKvvr4Lh1GbViNO5A62CMSbqptAkIo6iUQRUSUZGQiMqOknsiKqX16L55DnabgfZBOKbTKgqjqJRBBRJRkZCISkbIOREVv3BHVHT5qqRVEUZRyVcJElGRkIhKRnjCRFSikzZhFBVIREVCIioZgURUCIIQ0BZmgiAEZAwIghCQMSAIQkDGgCAIARkDgiAEZAwIghCQMSAIQkDGgCAIARkDgiAEZAwIghCQMSAyC9/UNEMiKtlAToqocMzly1A5t9J6dLYd1QmjeLHhmsRgzyQiAxObF1whYqDtcCQRlcwjPIOcElFRzNf0uWlhz0KFUXj04CY4usOGLQXBFYLIFXJOREUlX5VzO6WFPePxD6/wKL887ZVRuHgMkZIadOvii6oIrhBErpDfWMkDXnjhHGjF4ILcs39/aRCtA052FCgsrY2M/WeCyZU15o7z/eenmdvsQapiqqrka/7cGmVobs8y+jomoQUFxv27k+i4zdMW4GBljTzIsO5jaVm3d6/OYWVTmz/w6L1zrGz8Lz6DPfpm4dOaziGMTQWDnE4MOdBYbuCi8bSOIUxo6WZmJjDS2xI1vDyf2nQOjWFKl37IYRBDjIfM7x3R5TuFiZFetFSGloEHN+HBSjurwsoxMQRHfTBKUQCDc4saAEelHoiUkHsiKqbzbYb5c2PuvujfW5Fhzpc28RF7K7AFG23qBFciIREVCYmo7Dy7Q0TFiHIba6YMU+emBewsrMZQW9ADOFjJR9IaubBpOxA0iskKrkSFRFQkJKKSCXaFiIoh+63CGJg7tyWML3DhVAuKay8EDNLNy3wk1cY734OQTpOM4Ep0SERFQiIqmSDnRVSicn9LdF6z58ZjBPaIuHvyO8fn2WAu/7JcpPR7GJwkBFdiQyIqEhJRyQS5K6ISD5cnMJKbPbeVwYs4fSxolI6cPIuuVYtwrz3u4LMDCQmumIREVCQkorLz5KaIiilWkIpzaz7KFxu9WF/0p0xAcEUVElGRkIjKjpJ7IiqmcSGxc+O/X4rK+jb0jkmRD9/6gi6cuKLgigokoiIhEZWMkHMiKkr5xhAaiTi3KMIdPvciBlp7oNdTVRFcUYJEVCQkopIRdreISiLnJpDiKfO3r+AIc7fDhZXTJrhCIioSElHJCCSiQhCEgLYwEwQhIGNAEISAjAFBEAIyBgRBCMgYEAQhIGNAEISAjAFBEAIyBgRBCMgYEAQhIGNAEISAjAGRWfimphkSUckGskBEpQqOiUuwG25R0wj7v/LGTrQ02FHsj9rBN9w4pzF4I1LsRCWtnhrHGC5oWwJDd+Wpl5eIgbbDkURUMo/wDHJJRIWVFs1Nh4Kdm8PjJR5qgsPRqB3wo5I2iLWG10eUvcEEsUvJAhGVJXTpQo3pXy+NropttN61+ZBRdsvtwnTf+UC687eXwXdUW8qqI4J1qqQVWGvQ3mSHzbcOp4gAGo56eQkiF8j7i3fe364tDAtwwfEHmHAvokMXQss0jd0Yq97QphqalqKS+1yB9pHXUF24gdkzZzEYJ0RAy9AMDheuYvTIxbiReGKlldMDqwhQ8nZRr3HwDkPUyhsVPmVra0ED89T8Do13w4nJwZ7Q0G2ciOkd3/O/iNGrxtO7SH1IHtthHGe77ohvAXhY+ctNqA5oJ/BYDetYHO7C4EqwDDK4yQMsX+/BWq2uHN4NOMdvoOtOWPADg3PzE1HHKvVApISsFVGxNh5HJSub13Undsfi4cZa+lFdDHhcc7ENQZy0fHrQzKYHXteocoAS0+WNA4moSEhEZefJKhGVIBU4V8fDim1gcWBOO6aHL+JpocHfuIkLh4vgWezDya7QAKUSk2n59KCZeULMexm+GjZSxiVeec1CIioSElHJBFkpohIcZedMjrIWFFdfwFhnUA0pOsZpa9pZJyjwwDkcGeYsHurljYZ58RASUSFSTZaIqOjxj7JurIxGG6FDF/GujjrFoqDt0Dn0Noa7sfHTWuu72fSgAB4eG1HVEpgqr1lIREVCIiqZIOtEVPyjrG91DjdMBt9cmexC66gLXB6tqDz23Q+jtBX2g2K+a7MHpdX4iy8eckoa5PeJkMm1JJHyxoJEVCQkorLzZJmIim6UHY+5FBjB1pZP3NYzg0ra2CRe3piQiIqERFR2lKwSUQmOsovoidBGj05pTQv6+eIfvLi3EvvGpVHapa5jhh3qulM+Z8Bve/HvAQ0AjUTLGxUSUZGQiEpGyA4RFYH/Pr0Hy1dO4lq0zhUjX89yH05e090lUElrQFSREIHJ8qpAIioSElHJCFkjohIcZecVOxYXXHFh9vqJuJ1bLW1sEi9vDEhERUIiKhmBRFQIghDQFmaCIARkDAiCEJAxIAhCQMaAIAgBGQOCIARkDAiCEJAxIAhCQMaAIAgBGQOCIARkDAiCEJAxIDIL39Q0QyIq2UAWiKiEUtXSjeOHSnVaB+G7IrVIy9q3EAzyj4gILERU3sbZa+FRiczmSyIqKUXb4Wi8M5TYSYRnkBUiKqX16B6bwaXD5aGiJ0nAox1HRAQWIiqvYKo3uogKQTyJ5H3pP7y13c/3uXMRleEeDC5sYn9VC147dxg8Nqp78QpOJxC5o7F3Ck1lrAtyEZXxNRxoqkZxjBGzZWhKRM/1uV2YGx/F8EK0vbJyBD+g3ysfDb43/3IlthbH0TEstyxXtPTj8mG+rz9c30Ah3yhYG3sx1lQGXxJ5PHGQZ5A1ZIeISl03Js6VwxItmEoIyXfatpEZRJ5zsvmSiAqJqOQ2WSGiUlXJA5K6sTK8k0PDFraSXA/R4w92QiIqDBJRyUmyQkSlzMaakY9Z+6pejEzI2IriNTEER6M/4HcoBfZLgXRTU2MYcjTDVCTt0jYt0Osa5g3cncTyJREVElHJfbJARMWvAVCC6sNlKGQNKwAfYZocBloIoVj4oqC9wdSCZ0tbNQp5NOjxAcRbCTGbb9ArIBEVElHJXbJKRMXLb2f6Rw02wow63Wy2akFZnb75DaNVG1X8I8bV26wDiMbDVaONPQlOcz9fpOTz06sGYimJ5ksiKiSisjvIAhGV+9jihfC5MN56A3f8owYbYSa7xuVoxBp2WPsLwkaMlTs9uKi5m1arQYOxVqJtiIflZoZgtgutZqJ6msmXEQyMSiIq0SERlVwgC0RUXFjnEXstRYgUQ7IyV137GIdSvu7AeBDeUvfXwXHrMmqFR9CB1kG1+yJR8xWQiIo5SEQlF8gKEZU51zqbDthgP9eJep1wR0v/cZSz9ue9txL1aT5rUSXq2/rRfoiX1g3XnK6l8geZbp6D3eaThkAhznfMfDWCXgGJqMSGRFRygSwRUalC59gliH4XDhfuaGX5++eaUfON7PB+kY+o6MugkK+ERFRIRGV3kSUiKku4ZlCGgHBHzEUnLoyyjNErLxt02GSInS+JqChCIipZD4moEAQhoC3MBEEIyBgQBCEgY0AQhICMAUEQAjIGBEEIyBgQBCEgY0AQhICMAUEQAjIGBEEIyBgQBCEgY0BkFr6paYZEVLKBLBBRURUl0SIti89hGORf3tiJlgZ7UItBiKhMY/DGJGIF2a1xjOGCtiUwWhhvVYEYwgBthyOFSs88wjPIChGVtNCM5qZDoaIsQkSlCQ5HdBEVLr7SFG1vMCM7zo0gUku+P8ouuIhKn4w/eOL6LGQwXB77LyL8kCnqTjWjtoR1KC6iMiqDdBqzhK5jBpF62Oul0VWxjda7Nh8x4vK98hH/YzAyb7ldmO47H0hz/vYy+O5rS1l1RGBPgbUG7U122HzrcIqYa5GYPzeCyB3yGyt5wAsvnAOtQk2Jc39pEK0DTnYUKCytDQTWVGFyZY1NNfj+89PomvRAPaaqLvz4cKLO9zA6TndgeOGe9h24d+canDy4k49NheShEGram2RkpLkezOu20+tJ/txiwKdsnUMYmwoGOZ0YcqCx3MBF42kdQ5jQ0s3MTGCktyVqaHcuotI5NIYpXfohh0EMMR4yv3dEl+8UJkZ60VIZWgYe3IQHK+2sCisHD3FfH4xSFMDg3KIGwFGpByIlZIWIihGpEiUJYf9B1LT0o7oY8LjmIsJ38elBM5seeF2jbP4a40eTPLdYkIiKhERUdp6sEFGJJL4oiXmxE75AqY0ub9zEhcNF8Cz24WSX1F4MwKcHzXYUeJ0YvppsyPNEIREVCYmoZIIsEFGJRFWUREVEhTfe4uoLGOus0b5LatpZJyjwwDncgwhJhR3DvHgIiagQqSarRFQk8URJVMVOQhcor446xQKi7dC5gFKTtb6bTQ8K4OFxHzNnCRgkoiIhEZVMkAUiKqEoi5KYFDvxszLZhdZRF7hSU5Em1FBh58Kv3JZcCOlY/sjKJQ3y+0TI5Do9kIiKhERUdp4sEFHRk7goSWyxk1C2tny6yL9ZCImoSEhEZUfJChEVP4mIkpgRO9FTWtOCfr5QCC/urcjJ8lLXMcMOdd3JW7B8ApF/D2gApAsSUZGQiEpGyBIRFY5JUZKo+RqIncQog2e5Dyevhd1RCCOeSEhUEn00mURUJCSikhGyRERF7xWoipKoiKjwtC7MXj8R1xBkBBJRkZCISkYgERWCIAS0hZkgCAEZA4IgBGQMCIIQkDEgCEJAxoAgCAEZA4IgBGQMCIIQkDEgCEJAxoAgCAEZA4IgBGQMiMzCNzXNkIhKNpAFIiocs8IoqoIrjNJ6dLYdhd0fCNTnxYZrEoM9BiIq6UpLREfb4UgiKplHeAa7VkRFbMd9JTQisIVHBG6CoztsKEpXWoLIEbJARCVIfGEUNcGVU811Yl++xzWKKzxyL0t34sooXDwuSEkNunUxQ9OVliByhSwWUVHBSHClUYbb9iyjr2MSWqBf3L87iY7b/NwKcLDSHyE5XWkTgERUJCSisuNkrYiKCsaCK8yFZ30Wvi1ExEpZ2sRH7K3A5m+I6UqrDomoSEhEZefJKhEV88IoeqIJrmhBOAurMdQWHKkPVvLRsUYuVtoOaIYuXWlVIREVCYmoZIKsFFHhmBVGiS64soTxhXXwkOjFtcEQ6Dcv89FRG8N8D7SOkK60qpCIioREVDJBloioqAqj+IktuMLj/vWIWHraAYbPswHn9LJc0PR7RIx0pVWDRFQkJKKSCbJOREVgUhjFjODKyuBFnNbdgThy8iy6Vi3CZfa4Q7tsutKqQCIqEhJR2XmyTEQllNjCKIkLrjQf5YujXqwvxj+zdKWNCYmoSEhEZUfJKhEVP2aEUVQFV6ysgVfWt6F3TAp3+NYXQkOE60hX2riQiIqERFQyQnaIqERNayCMIjApuBJFjMPnXsRAa5jacrrSqqAiHkIiKkSKyRoRlVBiC6MkJrjig9e9ivnbV3CEudCxO2y60saBRFQkJKKSEUhEhSAIAW1hJghCQMaAIAgBGQOCIARkDAiCEJAxIAhCQMaAIAgBGQOCIARkDAiCEJAxIAhCQMaAIAgG8P8B7AfQOICk4ecAAAAASUVORK5CYII=;" vertex="1" parent="1">
          <mxGeometry x="460" y="355" width="230.06" height="310" as="geometry" />
        </mxCell>
      </root>
    </mxGraphModel>
  </diagram>
</mxfile>
